<?xml version="1.0" encoding="UTF-8"?>
<svg id="Camada_2" data-name="Camada 2" xmlns="http://www.w3.org/2000/svg" viewBox="0 0 707.14 212.93">
  <defs>
    <style>
      .cls-1 {
        fill: #fff;
      }

      .cls-2 {
        fill: #fed714;
      }

      .cls-3 {
        fill: #121212;
      }
    </style>
  </defs>
  <g id="Camada_1-2" data-name="Camada 1">
    <rect class="cls-2" x="246.6" width="460.54" height="212.93"/>
    <polygon class="cls-1" points="151.66 58.24 123.99 164.38 92.69 164.38 75.75 94.53 58.21 164.38 26.91 164.38 0 58.24 27.67 58.24 42.94 135.5 61.84 58.24 90.27 58.24 108.41 135.5 123.83 58.24 151.66 58.24"/>
    <polygon class="cls-1" points="190.51 78.95 190.51 100.42 225.13 100.42 225.13 120.38 190.51 120.38 190.51 143.67 229.67 143.67 229.67 164.38 164.65 164.38 164.65 58.24 229.67 58.24 229.67 78.95 190.51 78.95"/>
    <path class="cls-3" d="m318.27,58.24c11.19,0,20.97,2.22,29.33,6.65,8.37,4.44,14.84,10.66,19.43,18.67,4.59,8.01,6.88,17.26,6.88,27.75s-2.29,19.61-6.88,27.67c-4.59,8.07-11.09,14.31-19.51,18.75-8.42,4.44-18.17,6.65-29.26,6.65h-39.77V58.24h39.77Zm-1.66,83.77c9.78,0,17.39-2.67,22.83-8.01,5.44-5.34,8.16-12.9,8.16-22.68s-2.72-17.39-8.16-22.83c-5.44-5.44-13.06-8.16-22.83-8.16h-12.25v61.69h12.25Zm125.95,22.38l-22.08-40.07h-6.2v40.07h-25.86V58.24h43.4c8.37,0,15.5,1.46,21.4,4.38,5.9,2.92,10.31,6.93,13.23,12.02,2.92,5.09,4.38,10.76,4.38,17.01,0,7.06-1.99,13.36-5.97,18.9-3.98,5.54-9.85,9.48-17.62,11.79l24.49,42.03h-29.18Zm-28.27-58.36h16.03c4.74,0,8.29-1.16,10.66-3.48,2.37-2.32,3.55-5.59,3.55-9.83s-1.19-7.21-3.55-9.53c-2.37-2.32-5.92-3.48-10.66-3.48h-16.03v26.31Zm122.92,59.42c-9.98,0-19.13-2.32-27.44-6.96-8.32-4.64-14.92-11.11-19.81-19.43-4.89-8.32-7.33-17.66-7.33-28.05s2.44-19.71,7.33-27.97c4.89-8.26,11.49-14.72,19.81-19.35,8.32-4.64,17.46-6.96,27.44-6.96s19.13,2.32,27.44,6.96c8.32,4.64,14.87,11.09,19.66,19.35,4.79,8.27,7.18,17.59,7.18,27.97s-2.42,19.73-7.26,28.05c-4.84,8.32-11.39,14.79-19.66,19.43-8.27,4.64-17.39,6.96-27.37,6.96h0Zm0-23.59c8.47,0,15.25-2.82,20.34-8.47,5.09-5.64,7.64-13.1,7.64-22.38s-2.55-16.86-7.64-22.45c-5.09-5.59-11.87-8.39-20.34-8.39s-15.4,2.77-20.49,8.32c-5.09,5.54-7.64,13.06-7.64,22.53s2.54,16.86,7.64,22.45c5.09,5.59,11.92,8.39,20.49,8.39h0Zm149.53-49.44c0,6.15-1.41,11.77-4.23,16.86-2.82,5.09-7.16,9.2-13,12.32-5.85,3.13-13.11,4.69-21.77,4.69h-16.03v38.1h-25.86V58.24h41.88c8.47,0,15.62,1.46,21.47,4.38,5.84,2.92,10.23,6.96,13.15,12.1,2.92,5.14,4.38,11.04,4.38,17.69h0Zm-40.98,13.31c4.94,0,8.62-1.16,11.04-3.48,2.42-2.32,3.63-5.59,3.63-9.83s-1.21-7.51-3.63-9.83c-2.42-2.32-6.1-3.48-11.04-3.48h-14.06v26.61h14.06Z"/>
  </g>
</svg>